<?xml version="1.0" encoding="utf-8"?>
<!-- Generator: Adobe Illustrator 22.0.1, SVG Export Plug-In . SVG Version: 6.00 Build 0)  -->
<svg version="1.1" id="Layer_1" xmlns="http://www.w3.org/2000/svg" xmlns:xlink="http://www.w3.org/1999/xlink" x="0px" y="0px"
	 viewBox="0 0 4000 4000" style="enable-background:new 0 0 4000 4000;" xml:space="preserve">
<style type="text/css">
	.st0{fill:#FFF27E;}
	.st1{fill:#FEE35B;}
</style>
<rect class="st0" width="4000" height="4000"/>
<g>
	<path class="st1" d="M2132.9,2206.9c225.2-132,599.3-481.3,694.1-553.3s4-75-39.5-56c-25.4,11.1-565.5,424-707.7,528
		C1937.5,2229.6,1907.7,2338.9,2132.9,2206.9z"/>
	<path class="st1" d="M2823.5,3138.6c352.2-151.7,2173.8-1126,304.3-292C2839.1,2975.4,2264.4,3379.6,2823.5,3138.6z"/>
	<path class="st1" d="M1653.3,1180.6c-303,178.1-1038.3,433.5-956,502c95,79,111.3-34.3,772.4-208.3
		c450.5-118.5,969.6-285.7,737.6-348.7C1897.1,1041.4,2606.8,620.3,1653.3,1180.6z"/>
	<path class="st1" d="M1875.3,1575.6c-246.3-4-206.5-194.3-874.7,230.5c-218.5,138.9-180.4,178.7,57.5,115
		C2562.6,1518.5,2142.2,1579.9,1875.3,1575.6z"/>
	<path class="st1" d="M1509.3,2049.6c257.9,27.3,238,227,538.7,8.1c899.9-655.2,687.6-641.8,592.3-590.1
		C2205.3,1703.6,988.3,1994.6,1509.3,2049.6z M2420.7,1697.9c-241.8,258.9-529.2,364.8-582.6,287.5
		C1774.3,1893,2496.7,1616.6,2420.7,1697.9z"/>
	<path class="st1" d="M2916.6,2027.4c193.7-153.7-192.5-121.7-392.2,15.2c-268.3,184-1403,650-1179,1035
		C1433.5,3229,2724.8,2179.4,2916.6,2027.4z M2161.3,2330.6c97.8-66,475-231,371-133c-188.6,177.7-725.7,510.2-796,468
		C1631.3,2602.6,2052.9,2403.8,2161.3,2330.6z"/>
	<path class="st1" d="M646.3,2239.6c164-76,610.6-218.7,567-272c-51.5-63-905.5,451-283.5-219c44.1-47.4-164.5,16-449.5,297.8
		C278,2246.5,24.2,2453.1,39.9,2490.6C72.3,2567.7,365.8,2369.6,646.3,2239.6z"/>
	<path class="st1" d="M1706.4,790.6c-633.1,565-683.1,620,23.9,262C2207.2,811.2,2039.7,493.2,1706.4,790.6z M1826.3,898.6
		c-103,104-294,165-228,73C1675,864.8,2125,597.1,1826.3,898.6z"/>
	<path class="st1" d="M1436.3,3349.6c467-242.6,695.3-518.9,887-635c165.1-100,56.2-169.5-667.8,330.5
		C1252.1,3323.8,1337.6,3400.9,1436.3,3349.6z"/>
	<path class="st1" d="M1567,649.9c-160.2,75.9-322.7,122.7-326.7,215.3c-1.6,38.4,48,220.4,328.7-51.7
		c166.6-161.5,353-227.3,330.3-265.2C1873.3,504.9,1589.3,639.4,1567,649.9z"/>
	<path class="st1" d="M3330.3,2084.6c781.4-676.9-215.6-139.2-696.3,257c-560.4,461.8,454.7-34.6-170.9,374
		c-953.8,623-84.8,415,272.7,221c330.5-179.4,1150.9-350,1250.6-701c55.9-196.5-882.6,270.5-1118.1,267
		C2732.3,2500.6,3119,2267.6,3330.3,2084.6z M3590.4,2397.5c0,91.9-921.2,506.8-1094.7,461.7
		C2375.9,2828.1,3590.4,2305.6,3590.4,2397.5z"/>
	<path class="st1" d="M2145.3,98.6c42.9-19.1,106.2-55.5,173.9-99h-362.7C1635.6,199,2013.9,157.1,2145.3,98.6z"/>
	<path class="st1" d="M2638.2,3688.9c-56-9.6-269.7,97.3-337.1,128.6c-163.4,75.8-276.6,135.5-351.5,182.1h362.6v0
		C2500,3878.9,2721.9,3703.3,2638.2,3688.9z"/>
	<path class="st1" d="M3618.3,2049.7c0,0,226.5-150.7,382-221v-107.3c-49.5,19.9-104.7,44.5-166,74.3
		c-153.7,74.9-713.4,486.4-592,506c86.9,14,283-73,537-143c79-21.8,153.4-52.1,221-87.1v-110.9
		C3799.3,2050.6,3507.8,2119.9,3618.3,2049.7z"/>
	<path class="st1" d="M1.3,1720.9v107.3c23.7-10.7,45.7-19.5,65-25.5c146-46,199-57,88,64c-28,30.5-85.3,63.2-153,93.6V2071
		C395.3,1866.1,553.8,1499.5,1.3,1720.9z"/>
	<path class="st1" d="M555.3,1856.6c97-76,91-228-51-135c-89.2,58.4-320,329.7-435,483C-137.7,2480.6,458.3,1932.6,555.3,1856.6z"/>
	<path class="st1" d="M1913.3,3708.6c114.3,44.5,740.6-605.9,602-583s-306,82-493,176c-398.4,200.3-23.2,84.4-22,148
		C2001.5,3510.7,1805.3,3666.6,1913.3,3708.6z"/>
	<path class="st1" d="M2247.3,3698.6c-61-14,75-83,144-158s-13-79-88-27s-338.4,299.8-390,353c-129,133,291-56,390-106
		S2308.3,3712.6,2247.3,3698.6z"/>
	<path class="st1" d="M3860.5,3778.6c39.2-16.9,86.7-37.9,138.8-61.6v-147C3753.7,3714.6,3422.1,3967.6,3860.5,3778.6z"/>
	<path class="st1" d="M2778.3,3707.6c73.1,13,672.2-302,926.1-381c112.8-35.1,211.7-68.4,294.9-99.2v-162
		c-141.6,58.5-331.7,166.9-497.4,252.1C3189.4,3478.4,2704,3694.4,2778.3,3707.6z"/>
	<path class="st1" d="M3999.3,3315.6c-2.8,0.7-5.6,1.3-8.4,2c-200.4,47.5-150.2,209-467.3,313c-133.3,43.7-816.2,246.3-577.9,236
		c491.3-21.2,810.1-236.6,1053.6-379.7V3315.6z"/>
	<path class="st1" d="M3618.8,4000.6c130.9-40.6,281.4-84.4,380.6-101.1V3806c-200.8,82.4-387,140.6-555.6,194.6H3618.8z"/>
	<path class="st1" d="M3506.9,3841.6c-13.1-37.4-655,211-734,15c-20.6-51.1-145,26.9-285.7,144h732.3
		C3367.5,3943.1,3525.5,3895.1,3506.9,3841.6z"/>
	<path class="st1" d="M3516.7,3567.6c106.2-45.5,200.5-140.8,186.7-164c-25.9-43.4-642.8,246.9-630.3,296
		C3079.9,3726,3408.9,3613.9,3516.7,3567.6z"/>
	<path class="st1" d="M2498.3,3456.3c14.7,35.6,189.3,6.4,328.7-51.8c214.1-89.4,353-227.3,330.3-265.1c-26-43.5-310,91-332.3,101.6
		C2664.8,3316.9,2480.7,3413.2,2498.3,3456.3z"/>
	<path class="st1" d="M1163.5,3405.6c-20,8.7-588.7,384.1-900.4,595h180.6c319.2-220.6,697.7-492.2,759.3-539
		C1297.9,3389.6,1207,3386.6,1163.5,3405.6z"/>
	<path class="st1" d="M167.8,3486.6c-36.9,12-98.4,43.8-166.4,83.9v147C417.4,3528.9,1125.5,3176.2,167.8,3486.6z"/>
	<path class="st1" d="M1.4,3065.9v161.9c326.9-120.7,413.4-202.9,155.3-204.5C119.1,3023.1,65.1,3039.5,1.4,3065.9z"/>
	<path class="st1" d="M1067.7,2932.6C668.2,3092.2,514.8,3193.3,1.3,3315.9v171.7c101.6-59.7,189.9-107.9,272.4-122.4
		C1333.3,3178.6,1478.3,2768.6,1067.7,2932.6z"/>
	<path class="st1" d="M1685.1,3811.6c-41.3,38.2-124.3,110.2-212.9,189h333C1874.5,3843.1,1835.6,3672.4,1685.1,3811.6z"/>
	<path class="st1" d="M1575.5,3819.6c541-607.7,10.6-184.2-465.4,181h276.5C1469.7,3925.9,1537.9,3861.8,1575.5,3819.6z"/>
	<path class="st1" d="M1.3,17.4c8.8-6.2,16.9-12.1,24.6-17.8H1.3V17.4z"/>
	<path class="st1" d="M2036.9,490.6c32.4,77.1,807.1-321,1087.6-451c29.2-13.6,60.9-26.5,93-39h-732.3
		C2271,178.9,2018.9,447.9,2036.9,490.6z"/>
	<path class="st1" d="M3482.2,465.9c-56-9.6-396.7,211.5-653.8,256.7c-1002.1,176-621.1,633,153.9,153
		C3133.1,782.2,3596.1,485.5,3482.2,465.9z"/>
	<path class="st1" d="M3997.3,1086.1c-68.7,77.4-58.8,110.9,0,113.7V1086.1z"/>
	<path class="st1" d="M3887.3,635.3c-291.4,8-347.1-54.3-554.2,112c-315.1,253-891.8,458.4-1310.8,619.4c-443.1,170.2,217,209,556,8
		C3379.1,899.8,4144.7,628.2,3887.3,635.3z"/>
	<path class="st1" d="M443.8-0.4H263.1c-85,57.5-150.8,102.7-181.3,125c-28.3,20.8-56,44.2-80.5,67.4v97.3
		c11.1-5.8,23.4-12.7,37-20.7C117.2,222.4,271.9,118.4,443.8-0.4z"/>
	<path class="st1" d="M1007.7-0.4H851.9c-201.3,155-473.7,321.7-514.2,277c-32.6-36,132.6-128.8,241-202c23.2-15.7,67-43.4,118.8-75
		H589.3c-26.6,17.5-48,31.8-62.9,42C358.7,156.6,157.1,300,1.3,375.9v143.3c101.3-23,233.6-65.5,408.5-135.5
		C547.9,328.3,771.9,177.5,1007.7-0.4z"/>
	<path class="st1" d="M137.1-0.4H25.9C18.3,5.3,10.1,11.3,1.3,17.5v72c15.9-11,32.2-21.9,48.7-32.7C73.7,41.3,103.2,22,137.1-0.4z"
		/>
	<path class="st1" d="M1.3,721.8v236.6c120.9-73.1,244.8-151.6,365-233.8C713.1,487.5,326.4,601.6,1.3,721.8z"/>
	<path class="st1" d="M77.9,1261.6c-28.5,5.3-53.9,9.3-76.5,12.2v81.6C119.7,1282.9,177.2,1243.3,77.9,1261.6z"/>
	<path class="st1" d="M1169.5,336.6c121.5-19,376.4-52,547.3-210c38.7-35.8,68.3-80.8,88.5-127h-333
		C1291.5,160.4,1087.9,349.4,1169.5,336.6z"/>
	<path class="st1" d="M737.8,935.6c335.1-170.5,1298.6-445,1392.6-714c67.4-192.9-1260.2,384.9-1458.8,464
		c-174.2,69.4,386.7-391,715-686h-276.5C919,146.2,736.7,283.4,636,340.6c-631.2,359,441.7-53.9-170.9,374
		C213.7,890.2,68.8,1009.8,1.3,1086.2v112.6C122.9,1205.3,457.8,1078.1,737.8,935.6z M1803.3,363.6c0,100-857,404-1011.2,399
		C657.5,758.3,1803.3,263.6,1803.3,363.6z"/>
	<path class="st1" d="M443.3,1518.6c-197.3,103.5,37.6,260,573-170c418-335.7,285.6-594.4-329.9-305
		C386.1,1184.8,161.5,1307.4,1.3,1410v90.9c190.4-137.5,528.5-314.3,619.9-342.3c107.7-33,311.2-64,24.7,103
		c-172,100.2-474.6,260.7-644.6,331.2v67.1c237.1-105.6,527.6-264.7,585.3-299.3C1187.2,1000.6,1066.6,1191.6,443.3,1518.6z"/>
	<path class="st1" d="M714.1,3000.6c407.9-208.1,1218.2-583,941.4-844c-181.1-170.7-455.2,344-968.1,585
		C126.9,3005,341.6,3190.6,714.1,3000.6z M822.5,2785.6c234.1-146,584.7-506.1,633.8-429c106.9,168-306.5,348-516,451
		C730.9,2910.6,560.4,2949.1,822.5,2785.6z"/>
	<path class="st1" d="M3997.3,289.8V192C3905.7,278.7,3859.4,362.5,3997.3,289.8z"/>
	<path class="st1" d="M2162.3,772.6c185.3,34,796-219.9,1227.9-368c355.9-122,112.7,228,607.1,115.3V376.4
		c-100.8,49.2-182.6,70.3-223.8,37.3c-83-66.6,47.3-201.7,223.8-323.9v-72c-62.9,44.7-155.8,103.3-286,178.9
		c-294.4,170.9-1464,436-1230.9,294c15.1-9.2,743.9-372,882.2-410c34.6-9.5,136.5-43.5,254.2-80h-175
		c-159.7,51.2-303.6,98.8-428.9,160C3012.9,160.6,1726.1,692.6,2162.3,772.6z"/>
	<path class="st1" d="M3404.1,143.6c-154.2,31.9-585.9,217.4-577.9,250c6.1,25,374.6-87.4,465.3-111c131.4-34.2,243.4-123,233.1-147
		C3517.9,120.1,3460.5,131.9,3404.1,143.6z"/>
	<path class="st1" d="M3132.9,1448.8c58.1-46.2,442.8-235,864.5-490V722.4c-110.4,40.8-213.8,82.4-279.1,111.2
		C2434.7,1400.4,2877.2,1652.4,3132.9,1448.8z M3246,1297.6c-139.7,98.3-266.5,74.8-197.6,3.9c153.7-158.3,637.3-393.3,692.5-392.9
		C3789.5,909,3336.4,1234.1,3246,1297.6z"/>
	<path class="st1" d="M486.3,2658.6c19.4,66.1-335.5,204.3-477.9,263.1c-2.4,1-4.8,2-7.1,3v64.2c436.4-209,923.5-402.7,1310-819.3
		c169.3-182.4-654.4,132.9-1310,461.8v104.8c49.6-16.6,101.2-30.6,154.3-40.8C268.8,2673.5,474.7,2619.1,486.3,2658.6z"/>
	<path class="st1" d="M2873.6,3443.6c-676.2,263.2-513.9,236.1-353.7,199c198.5-45.9,418.4-37.6,1218-514
		c94.5-56.3,181-101.8,261.3-140.2v-64.2c-292.2,122.5-523.8,345.7-592.5,244.2c-29.6-43.7,229.3-311.1,592.5-432.6v-105
		c-97.3,48.8-196.1,102.2-293.9,159.7C3208.8,3082.7,3302,3276.9,2873.6,3443.6z"/>
	<path class="st1" d="M3832.1,2865.5c-71.3,15.9-292.4,159.3-323.8,258.7c-17.6,55.5,151.7-73.6,288.5-146.8
		C3880.3,2932.7,3903.4,2849.6,3832.1,2865.5z"/>
	<path class="st1" d="M1950.9,3194.6c113.7-133-1031.6,588.9-1361.6,806h108.3c166.5-101.5,415.5-242.9,329.7-152
		c-39.9,42.3-103,96.4-175.3,152h155.8C1411.7,3695.9,1850.4,3312.1,1950.9,3194.6z"/>
	<path class="st1" d="M641.9,3467.6C416,3618.1,201.5,3724.3,1.3,3806.4v93.3c116.8-19.8,163.1-2.4,24.6,100.9h111.2
		c327.7-215.8,1073.9-715,1073.9-715C1278.1,3133.6,716.1,3418.3,641.9,3467.6z"/>
	<path class="st1" d="M3910.9,1570.6c22.5-21.2,52.1-44.7,86.5-69.4v-90.8c-254.9,163.2-347.1,276.1-321.6,333.2
		c17,38.2,156.4-9.6,321.6-83.2v-67.1C3883.5,1640.6,3828.6,1647.9,3910.9,1570.6z"/>
	<path class="st1" d="M3997.4,1274.7c-414.6,53.5,92.3-261.4-217.9-82.1c-300.2,173.5-391,156-558.1,271
		c-822.9,566,67,413.6,278.6,230c150.9-130.9,363.5-255.7,497.4-337.8V1274.7z"/>
</g>
</svg>
