<?xml version="1.0" encoding="utf-8"?>
<!-- Generator: Adobe Illustrator 22.0.1, SVG Export Plug-In . SVG Version: 6.00 Build 0)  -->
<svg version="1.1" id="Layer_1" xmlns="http://www.w3.org/2000/svg" xmlns:xlink="http://www.w3.org/1999/xlink" x="0px" y="0px"
	 width="813.4px" height="191.4px" viewBox="0 0 813.4 191.4" style="enable-background:new 0 0 813.4 191.4;" xml:space="preserve"
	>
<style type="text/css">
	.st0{fill:#5AC37D;}
</style>
<g>
	<path class="st0" d="M52.7,117.7c14.9,25.8,50.2,36.9,78.3,20.6c28.4-16.4,36.2-52.3,21.4-78.2C137.5,34.2,102.5,23,74,39.5
		C45.8,55.7,37.8,91.8,52.7,117.7z"/>
	<path class="st0" d="M45.8,121.6c-17-29.3-7.8-70.5,24.3-89L77,6.9L51.3,0l0,0l0,0C2.2,28.3-14.5,91,13.7,140.1
		s91.2,65.9,140.1,37.5L135,145C102.9,163.7,62.7,151.1,45.8,121.6z"/>
	<path class="st0" d="M244.6,34.5c-10.1,0-16.5,7-16.5,18.3v18h23.1V96h-23.1v85h-31.5V95.9H182V70.7h14.6V55.6
		c0-23.3,4.7-48.8,41.5-48.8c8.8,0,13,0.9,21.5,2.7v27C255.6,35.6,252,34.5,244.6,34.5 M813.4,181v-63.8c0-18.4-1.4-27.2-5.3-33.9
		c-5.5-9.7-17.3-15.8-30.8-15.8c-16.5,0-27.9,8.1-35.6,25.8c-3.9-17.2-13.7-25.8-29.9-25.8c-16.8,0-26.8,7.8-35.2,25V69.7H646v111.2
		h31.6v-51.7c0-7.2,0.4-12.6,1.6-16.5c2.8-10,9.9-16.5,18.4-16.5c6.5,0,11.2,3.2,13.5,9.1c1.6,4.2,2.3,9.7,2.3,20v55.6h31.9v-53.6
		c0-20.2,6.8-31.1,20-31.1c7.7,0,12.8,3.4,14.7,10.8c0.7,3.2,1.2,9.3,1.2,16.5v57.2h31.9v0.3H813.4z M634.1,126.9V69.8h-31.6v57.1
		c0,22.3-4.2,29.8-18.4,29.8c-14.6,0-19.6-7.4-19.6-27.9v-59h-31.6v58.6c0,24.3,3.9,35,15,44.4c8.8,7.2,21.4,11,36,11
		c17.2,0,31.1-5.5,39.9-15.8C630.9,159.3,634.1,148,634.1,126.9 M522.3,181v-24.9c-5.1,1.2-8.4,1.4-13,1.4
		c-14.2,0-18.7-5.3-18.7-21.1V95.9h30.3V70.6h-30.3V34.2L459,52.1v89.8c0,28.5,13.1,41.1,42.5,41.1C508.9,183,514.4,182.6,522.3,181
		 M448.7,100.2c-5.5-2.6-9.1-3.2-14.6-3.2c-17.6,0-27.7,13.3-27.7,34.6V181h-31.6V69.8h30.6v25.3c3.9-16.9,16-26.9,33.5-26.9
		c3,0,6.1,0.4,10,1.2v30.8H448.7z"/>
	<path class="st0" d="M363.5,125.1c0-34.1-20-58.6-54.6-58.6c-33,0-55,25-55,58c0,36.2,21.6,59.2,55.7,59.2
		C341.2,183.9,363.5,159.6,363.5,125.1L363.5,125.1z M331.6,125c0,19.7-8.3,31.9-22.2,31.9c-14.3,0-23.7-13-23.7-32.2
		c0-19.1,8.9-31.5,23.1-31.5S331.6,105.2,331.6,125L331.6,125z"/>
</g>
</svg>
