<?xml version="1.0" encoding="utf-8"?>
<!-- Generator: Adobe Illustrator 22.0.1, SVG Export Plug-In . SVG Version: 6.00 Build 0)  -->
<svg version="1.1" id="Layer_1" xmlns="http://www.w3.org/2000/svg" xmlns:xlink="http://www.w3.org/1999/xlink" x="0px" y="0px"
	 viewBox="0 0 330.2 520.3" style="enable-background:new 0 0 330.2 520.3;" xml:space="preserve">
<style type="text/css">
	.st0{fill:#160227;}
	.st1{fill:#4C374E;}
	.st2{fill:#FFE25B;}
	.st3{fill:#FFF27E;}
	.st4{fill:#00374B;}
	.st5{fill:#FFCB33;}
</style>
<g>
	<g>
		<path class="st0" d="M168.5,520.3c-47,0-85.3-38.3-85.3-85.3V303.8c0-2.8,2.2-5,5-5s5,2.2,5,5V435c0,41.5,33.8,75.3,75.3,75.3
			c41.5,0,75.3-33.8,75.3-75.3V229.6c0-2.8,2.2-5,5-5s5,2.2,5,5V435C253.8,482.1,215.6,520.3,168.5,520.3z"/>
	</g>
	<g>
		<path class="st1" d="M108,418.6c4.1-5.1,12.8-6.3,23.9,0c10.3,5.9,24.7,15.2,36.2,15.2c0.7,0,0.9,0.9,0.3,1.2
			c-4.2,2.2-14.2,6.1-29.1,2.6C119.3,432.8,99.7,429.1,108,418.6z"/>
	</g>
	<g>
		<path class="st0" d="M92.6,459.2L92.6,459.2C92.6,459.3,92.6,459.3,92.6,459.2L92.6,459.2L92.6,459.2c0-0.1,0-0.2-0.1-0.3
			c0-0.1-0.1-0.2-0.1-0.3c0.9-0.3-3.2-1.9-2.9-0.9c-0.2,0.1-0.5,0.4-0.6,0.6c-0.2,0.3-0.1,0.1-0.1,0.2c0,0,0,0.1-0.1,0.1l0,0
			c0,0,0,0,0,0l0.1-0.4l0.2-0.9l0.4-1.8l0.9-3.7c0.6-2.5,1.3-4.9,2-7.3c1.5-4.8,3.3-9.6,5.6-14.2c1.2-2.3,2.5-4.5,4.1-6.5
			c1.6-2,3.5-3.9,5.9-5.2c1.2-0.6,2.5-1,3.9-1.2c1.4-0.1,2.7,0,4,0.4c2.6,0.7,4.8,2.2,6.7,3.8c0.2,0.2,0.2,0.5,0.1,0.7
			c-0.2,0.2-0.5,0.2-0.7,0.1c-1.9-1.5-4.1-2.8-6.4-3.3c-2.3-0.5-4.7-0.2-6.7,1c-2,1.2-3.7,2.9-5.1,4.9c-1.4,2-2.5,4.1-3.6,6.4
			c-2,4.5-3.5,9.2-4.7,14c-0.6,2.4-1.2,4.8-1.6,7.2l-0.7,3.7l-0.3,1.8l-0.2,0.9l-0.1,0.5l-0.1,0.2l0,0.1l-0.1,0.2
			c-0.1,0.1,0.1-0.1-0.1,0.3c-0.2,0.3-0.4,0.5-0.6,0.6c0.3,1-3.8-0.6-2.9-0.9c0-0.1-0.1-0.2-0.1-0.3c0-0.1,0-0.3,0-0.3l0-0.1l0-0.1
			l0-0.1l0-0.2l0,0c0-1.1,0.9-2,2-2c1.1,0,2,0.9,2,2C92.6,459.1,92.6,459.2,92.6,459.2z"/>
	</g>
	<g>
		<path class="st1" d="M68.4,395.3c-4.1-5.1-12.8-6.3-23.9,0c-10.3,5.9-24.7,15.2-36.2,15.2c-0.7,0-0.9,0.9-0.3,1.2
			c4.2,2.2,14.2,6.1,29.1,2.6C57.2,409.5,76.8,405.8,68.4,395.3z"/>
	</g>
	<g>
		<path class="st0" d="M87.8,435.7l0,0.2l0,0.1l0,0.1l0,0.1c0,0,0,0.2,0,0.3c0,0.1-0.1,0.2-0.1,0.3c0.9,0.3-3.2,2-2.9,0.9
			c-0.2-0.2-0.5-0.4-0.6-0.6c-0.2-0.4-0.1-0.2-0.1-0.3l-0.1-0.2l0-0.1l-0.1-0.2l-0.1-0.5l-0.2-0.9l-0.3-1.8l-0.7-3.7
			c-0.5-2.4-1-4.8-1.6-7.2c-1.2-4.8-2.7-9.5-4.7-14c-1-2.2-2.2-4.4-3.6-6.4c-1.4-2-3.1-3.7-5.1-4.9c-2-1.2-4.4-1.5-6.7-1
			c-2.3,0.5-4.5,1.8-6.4,3.3c-0.2,0.2-0.5,0.1-0.7-0.1c-0.2-0.2-0.1-0.5,0.1-0.7c1.9-1.6,4.1-3.1,6.7-3.8c1.3-0.4,2.6-0.5,4-0.4
			c1.4,0.1,2.7,0.5,3.9,1.2c2.4,1.2,4.3,3.1,5.9,5.2c1.6,2,2.9,4.3,4.1,6.5c2.3,4.6,4.1,9.4,5.6,14.2c0.7,2.4,1.4,4.9,2,7.3l0.9,3.7
			l0.4,1.8l0.2,0.9l0.1,0.4c0,0,0,0.1,0,0l0,0c0,0,0-0.1-0.1-0.1c0-0.1,0.1,0.1-0.1-0.2c-0.1-0.2-0.4-0.5-0.6-0.6
			c0.3-1-3.8,0.6-2.9,0.9c0,0.1-0.1,0.2-0.1,0.3c0,0.1,0,0.2,0,0.2l0,0l0,0.1c0,0,0,0,0,0l0-0.1c-0.1-1.1,0.7-2.1,1.8-2.2
			c1.1-0.1,2.1,0.7,2.2,1.8C87.8,435.6,87.8,435.6,87.8,435.7L87.8,435.7z"/>
	</g>
	<g>
		<g>
			<g>
				<path class="st2" d="M122.7,286.9c0,0,9.1-12.9,16.8-13.9c7.7-1,24.6,1.2,24.6,1.2s-2.4,6.1-8.6,9.4
					c-6.2,3.2-26.9,12.2-32.6,8.5C120.4,290.4,122.7,286.9,122.7,286.9z"/>
			</g>
		</g>
		<g>
			<g>
				<path class="st3" d="M84.3,264.8c0,0-8.7-17.2-8.1-24c1.2-15,2.4-24.6,2.4-24.6s10.3,7.3,12.2,22.5c0.9,6.9-0.1,23-1.1,26.8
					C88.7,269.3,85.1,266.9,84.3,264.8z"/>
			</g>
		</g>
		<g>
			<g>
				<path class="st3" d="M53.1,286.8c0,0-19.3-1.1-24.9-5c-12.4-8.6-20.1-14.4-20.1-14.4s11.4-5.3,25.6,0.7
					c6.4,2.7,19.9,11.6,22.6,14.3C59.1,285.3,55.3,287.1,53.1,286.8z"/>
			</g>
		</g>
		<g>
			<g>
				<path class="st3" d="M56.6,324.8c0,0-10.6,16.1-16.8,19C26.2,350.3,17.3,354,17.3,354s1.2-12.5,13.4-21.8
					c5.5-4.2,20-11.4,23.7-12.4S57.9,323.1,56.6,324.8z"/>
			</g>
		</g>
		<g>
			<g>
				<path class="st3" d="M91.2,340.8c0,0,8.7,17.2,8.1,24c-1.2,15-2.4,24.6-2.4,24.6s-10.3-7.3-12.2-22.5c-0.9-6.9,0.1-23,1.1-26.8
					C86.8,336.4,90.3,338.8,91.2,340.8z"/>
			</g>
		</g>
		<g>
			<g>
				<path class="st3" d="M122.4,318.8c0,0,19.3,1.1,24.9,5c12.4,8.6,20.1,14.4,20.1,14.4s-11.4,5.3-25.6-0.7
					c-6.4-2.7-19.9-11.6-22.6-14.3C116.3,320.4,120.2,318.6,122.4,318.8z"/>
			</g>
		</g>
		<g>
			<g>
				<path class="st3" d="M118.9,280.8c0,0,10.6-16.1,16.8-19c13.6-6.4,22.5-10.2,22.5-10.2s-1.2,12.5-13.4,21.8
					c-5.5,4.2-20,11.4-23.7,12.4C117.2,286.9,117.6,282.6,118.9,280.8z"/>
			</g>
		</g>
		<g>
			<g>
				<path class="st2" d="M75.9,267.6c0,0-6.7-6.7-10.2-13.7c-3.5-6.9-3.3-28.9-3.3-28.9s13.3,8.6,17.9,17.9s1.3,24.5,0.2,24.5
					C79.5,267.4,75.9,267.6,75.9,267.6z"/>
			</g>
		</g>
		<g>
			<g>
				<path class="st2" d="M43.5,348.2c4.5-6.4,9-12.7,13.7-19c0.2-0.2,0.4-0.2,0.6-0.1c0.2,0.2,0.2,0.4,0.1,0.6c0,0,0,0,0,0
					c-4.8,6.1-9.4,12.4-14,18.7c-0.1,0.1-0.2,0.1-0.3,0.1C43.4,348.4,43.4,348.3,43.5,348.2z"/>
			</g>
		</g>
		<g>
			<g>
				<path class="st2" d="M123.4,312.8c0,0,8.8-3.6,16.6-4.2c7.8-0.6,27.9,8.2,27.9,8.2s-13.1,8.9-23.4,9.6
					c-10.3,0.7-23.1-8.3-22.7-9.3C122.2,316.2,123.4,312.8,123.4,312.8z"/>
			</g>
		</g>
		<g>
			<g>
				<path class="st2" d="M114.2,276.9c0,0,1.3-9.4,4.7-16.4c3.4-7,21.1-20.1,21.1-20.1s1.2,15.8-3.4,25.1
					c-4.6,9.3-18.7,15.9-19.4,15C116.5,279.7,114.2,276.9,114.2,276.9z"/>
			</g>
		</g>
		<g>
			<g>
				<path class="st2" d="M91.4,264.6c0,0-6.6-14.3-3.7-21.5c3-7.2,13.3-20.7,13.3-20.7s4.1,5.1,3.8,12.1c-0.3,7-2.9,29.4-9,32.5
					C93.2,268.3,91.4,264.6,91.4,264.6z"/>
			</g>
		</g>
		<g>
			<g>
				<path class="st2" d="M63.7,273.3c0,0-8.1-5-13.1-11c-5-6-9.8-27.4-9.8-27.4s14.9,5.4,21.5,13.4s6.8,23.6,5.8,23.8
					C67.2,272.3,63.7,273.3,63.7,273.3z"/>
			</g>
		</g>
		<g>
			<g>
				<path class="st2" d="M56.4,280.5c0,0-15.7-1.4-20.4-7.6S24.7,251,24.7,251s6.5-1,12.4,2.8s24,17.2,23.7,24
					C60.6,280.8,56.4,280.5,56.4,280.5z"/>
			</g>
		</g>
		<g>
			<g>
				<path class="st2" d="M52.8,318.8c0,0-9.1,12.9-16.8,13.9c-7.7,1-24.6-1.2-24.6-1.2s2.4-6.1,8.6-9.4c6.2-3.2,26.9-12.2,32.6-8.5
					C55.1,315.3,52.8,318.8,52.8,318.8z"/>
			</g>
		</g>
		<g>
			<g>
				<path class="st2" d="M84.1,341.1c0,0,6.6,14.3,3.7,21.5c-3,7.2-13.3,20.7-13.3,20.7s-4.1-5.1-3.8-12.1c0.3-7,2.9-29.4,9-32.5
					C82.2,337.3,84.1,341.1,84.1,341.1z"/>
			</g>
		</g>
		<g>
			<g>
				<path class="st2" d="M119,325.1c0,0,15.7,1.4,20.4,7.6s11.3,21.9,11.3,21.9s-6.5,1-12.4-2.8c-5.9-3.8-24-17.2-23.7-24
					C114.8,324.9,119,325.1,119,325.1z"/>
			</g>
		</g>
		<g>
			<g>
				<path class="st3" d="M94.1,263.9c0,0-0.2-14.6,3-20.4c3.2-5.8,16.9-21.1,16.9-21.1s3.6,11.7,0.3,20.1
					c-3.2,8.4-12.8,21.4-15,23.3S94.4,267.4,94.1,263.9z"/>
			</g>
		</g>
		<g>
			<g>
				<path class="st3" d="M57.2,277.8c0,0-12.7-7.1-16.2-12.8c-3.4-5.7-9.8-25.1-9.8-25.1s11.9,2.7,17.6,9.8
					c5.7,7,12.1,21.7,12.7,24.7S60.4,279.3,57.2,277.8z"/>
			</g>
		</g>
		<g>
			<g>
				<path class="st3" d="M50.8,316.8c0,0-12.5,7.5-19.2,7.6c-6.7,0.1-26.7-4.1-26.7-4.1s8.3-8.9,17.2-10.3
					c8.9-1.4,24.9,0.4,27.7,1.3C52.7,312.3,53.7,314.7,50.8,316.8z"/>
			</g>
		</g>
		<g>
			<g>
				<path class="st3" d="M81.3,341.8c0,0,0.2,14.6-3,20.4c-3.2,5.8-16.9,21.1-16.9,21.1s-3.6-11.7-0.3-20.1
					c3.2-8.4,12.8-21.4,15-23.3S81,338.2,81.3,341.8z"/>
			</g>
		</g>
		<g>
			<g>
				<path class="st3" d="M118.3,327.8c0,0,12.7,7.1,16.2,12.8c3.4,5.7,9.8,25.1,9.8,25.1s-11.9-2.7-17.6-9.8
					c-5.7-7-12.1-21.7-12.7-24.7C113.5,328.4,115,326.3,118.3,327.8z"/>
			</g>
		</g>
		<g>
			<g>
				<path class="st3" d="M124.7,288.9c0,0,12.5-7.5,19.2-7.6c6.7-0.1,26.7,4.1,26.7,4.1s-8.3,8.9-17.2,10.3
					c-8.9,1.4-24.9-0.4-27.7-1.3C122.8,293.3,121.7,290.9,124.7,288.9z"/>
			</g>
		</g>
		<g>
			<g>
				<path class="st3" d="M71.1,267.5c0,0-13.1-13.6-15.8-19.8c-6.1-14.1-6.1-23.9-6.1-23.9s9.3,5.1,19.1,17
					c4.4,5.4,7.8,21.6,8.1,25.5C76.7,270.2,72.6,269.1,71.1,267.5z"/>
			</g>
		</g>
		<g>
			<g>
				<path class="st2" d="M51.4,295.4c0,0-9.2,2.5-17,2c-7.8-0.4-26.7-11.6-26.7-11.6s14.1-7.2,24.5-6.6c10.3,0.6,21.9,11.1,21.3,12
					C53,292.2,51.4,295.4,51.4,295.4z"/>
			</g>
		</g>
		<g>
			<g>
				<path class="st2" d="M50.2,308.8c0,0-8.4,4.5-16.1,5.8c-7.7,1.4-28.6-5.3-28.6-5.3s12.1-10.2,22.3-12s23.8,5.8,23.5,6.9
					C51,305.4,50.2,308.8,50.2,308.8z"/>
			</g>
		</g>
		<g>
			<g>
				<path class="st3" d="M48.8,299.6c0,0-18.3,4.6-25.1,3.8C8.5,301.6,0,296.7,0,296.7s9.1-5.5,24.3-8c6.9-1.1,22.6,4.1,26.2,5.7
					C54,296.1,51,299.1,48.8,299.6z"/>
			</g>
		</g>
		<g>
			<g>
				<path class="st2" d="M63.1,330.6c0,0-2.5,9.2-6.7,15.7c-4.3,6.5-23.4,17.3-23.4,17.3s0.8-15.9,6.5-24.5s20.6-13.4,21.1-12.5
					C61.2,327.6,63.1,330.6,63.1,330.6z"/>
			</g>
		</g>
		<g>
			<g>
				<path class="st2" d="M74.2,338.4c0,0-0.3,9.5-3,16.8c-2.7,7.3-18.9,22.2-18.9,22.2s-2.8-15.6,0.8-25.3
					c3.6-9.7,17-17.7,17.7-16.9C71.6,335.9,74.2,338.4,74.2,338.4z"/>
			</g>
		</g>
		<g>
			<g>
				<path class="st3" d="M65.5,334.9c0,0-5.2,18.1-9.3,23.6c-9.2,12.3-17.7,17.2-17.7,17.2s-0.3-10.6,5.2-25.1
					c2.5-6.5,14.9-17.5,18.1-19.8C65,328.7,66.1,332.8,65.5,334.9z"/>
			</g>
		</g>
		<g>
			<g>
				<path class="st2" d="M99.5,338c0,0,6.7,6.7,10.2,13.7c3.5,6.9,3.3,28.9,3.3,28.9s-13.3-8.6-17.9-17.9s-1.3-24.5-0.2-24.5
					C95.9,338.2,99.5,338,99.5,338z"/>
			</g>
		</g>
		<g>
			<g>
				<path class="st2" d="M111.7,332.4c0,0,8.1,5,13.1,11c5,6,9.8,27.4,9.8,27.4s-14.9-5.4-21.5-13.4s-6.8-23.6-5.8-23.8
					C108.3,333.4,111.7,332.4,111.7,332.4z"/>
			</g>
		</g>
		<g>
			<g>
				<path class="st3" d="M104.4,338.1c0,0,13.1,13.6,15.8,19.8c6.1,14.1,6.1,23.9,6.1,23.9s-9.3-5.1-19.1-17
					c-4.4-5.4-7.8-21.6-8.1-25.5C98.7,335.4,102.9,336.5,104.4,338.1z"/>
			</g>
		</g>
		<g>
			<g>
				<path class="st2" d="M125.3,296.8c0,0,8.4-4.5,16.1-5.8c7.7-1.4,28.6,5.3,28.6,5.3s-12.1,10.2-22.3,12s-23.8-5.8-23.5-6.9
					C124.4,300.3,125.3,296.8,125.3,296.8z"/>
			</g>
		</g>
		<g>
			<g>
				<path class="st3" d="M126.6,306c0,0,18.3-4.6,25.1-3.8c15.3,1.8,23.8,6.7,23.8,6.7s-9.1,5.5-24.3,8c-6.9,1.1-22.6-4.1-26.2-5.7
					C121.5,309.6,124.5,306.5,126.6,306z"/>
			</g>
		</g>
		<g>
			<g>
				<path class="st2" d="M101.3,267.3c0,0,0.3-9.5,3-16.8c2.7-7.3,18.9-22.2,18.9-22.2s2.8,15.6-0.8,25.3
					c-3.6,9.7-17,17.7-17.7,16.9C103.9,269.8,101.3,267.3,101.3,267.3z"/>
			</g>
		</g>
		<g>
			<g>
				<path class="st3" d="M110,270.8c0,0,5.2-18.1,9.3-23.6c9.2-12.3,17.7-17.2,17.7-17.2s0.3,10.6-5.2,25.1
					c-2.5,6.5-14.9,17.5-18.1,19.8C110.4,277,109.3,272.8,110,270.8z"/>
			</g>
		</g>
		<g>
			<path class="st1" d="M129.1,302.8c0,0.7,2.1,1.5,2.1,2.2c0,0.7-2.5,1.3-2.6,2c-0.1,0.7,1,1.5,0.9,2.2c-0.1,0.7-0.5,1.4-0.7,2
				c-0.1,0.7,0.9,1.7,0.7,2.4c-0.2,0.7,0,1.5-0.2,2.2c-0.2,0.7-2.2,0.8-2.4,1.5c-0.2,0.7-0.7,1.2-1,1.9c-0.3,0.7,0.2,1.7-0.1,2.3
				c-0.3,0.6-1.3,0.9-1.6,1.6c-0.3,0.6,0.8,2.1,0.4,2.7c-0.4,0.6-1.2,1-1.6,1.6c-0.4,0.6-2.5-0.1-2.9,0.5c-0.4,0.6-1.3,0.7-1.8,1.2
				c-0.5,0.5,0.7,2.5,0.2,3c-0.5,0.5-1.3,0.7-1.8,1.2c-0.5,0.5-1.2,0.8-1.7,1.3c-0.5,0.5-1.2,0.8-1.7,1.2c-0.6,0.4-0.3,2.1-0.9,2.5
				c-0.6,0.4-2.3-0.8-2.9-0.5c-0.6,0.4-0.3,2.3-0.9,2.6c-0.6,0.3-2.2-1.1-2.8-0.8c-0.6,0.3-0.6,2-1.3,2.3c-0.6,0.3-1.3,0.8-1.9,1
				c-0.7,0.2-1.3,0.7-2,0.9c-0.7,0.2-2.1-2.3-2.8-2.1c-0.7,0.2-1,1.6-1.7,1.8c-0.7,0.1-1.5-0.8-2.2-0.6c-0.7,0.1-1.2,1.6-1.9,1.6
				c-0.7,0.1-1.4,0.2-2.1,0.2c-0.7,0-1.4,0.9-2.1,0.9c-0.7,0-1.4-0.6-2.1-0.6c-0.7,0-1.5,0.5-2.2,0.5c-0.7-0.1-1.4-0.4-2.1-0.5
				c-0.7-0.1-1.3-1.2-1.9-1.3c-0.7-0.1-1.4-0.4-2-0.6c-0.7-0.2-1.5,0-2.2-0.2c-0.7-0.2-1.5,0.1-2.2-0.2c-0.7-0.2-0.7-2-1.4-2.3
				c-0.7-0.3-1-1.1-1.6-1.4c-0.6-0.3-1.9,0.7-2.5,0.3c-0.6-0.3-0.5-1.9-1.1-2.2c-0.6-0.4-2.3,1-2.9,0.6c-0.6-0.4,0.2-2.6-0.4-3.1
				c-0.6-0.4-1.9,0.1-2.4-0.3c-0.5-0.5-1.5-0.5-2-0.9c-0.5-0.5-1.8-0.2-2.3-0.8c-0.5-0.5,0.6-2.4,0.1-3c-0.5-0.5-2.4,0.1-2.8-0.4
				c-0.4-0.6-0.2-1.7-0.6-2.2c-0.4-0.6,0.2-1.8-0.2-2.4c-0.4-0.6-0.4-1.4-0.7-2c-0.3-0.6-1.6-0.7-1.9-1.4c-0.3-0.6-1.7-0.8-2-1.5
				c-0.3-0.6,0.8-1.9,0.5-2.5c-0.2-0.7-2.1-0.8-2.4-1.5c-0.2-0.7,1.4-1.9,1.2-2.6c-0.2-0.7-0.2-1.4-0.3-2.1
				c-0.1-0.7-1.6-1.2-1.8-1.9c-0.1-0.7,1.7-1.6,1.7-2.3c-0.1-0.7-2.6-1.2-2.6-1.9c0-0.7,2.1-1.5,2.1-2.2c0-0.7-1.7-1.5-1.7-2.2
				c0-0.7,2.3-1.2,2.4-1.9c0.1-0.7,0.3-1.3,0.5-2c0.1-0.7,0-1.4,0.1-2.1c0.1-0.7,0.1-1.4,0.3-2.1c0.2-0.7-1.4-1.9-1.2-2.5
				c0.2-0.7,1-1.2,1.3-1.8c0.2-0.7-0.7-1.9-0.4-2.5c0.3-0.7,1-1.2,1.3-1.8c0.3-0.6,1-1.1,1.3-1.8c0.3-0.6,1.9-0.5,2.3-1.1
				c0.4-0.6,0.7-1.2,1.1-1.8c0.4-0.6,0.6-1.3,1.1-1.8c0.4-0.6-0.1-2,0.3-2.5c0.5-0.5,2.6,0.5,3.1,0c0.5-0.5-0.7-2.7-0.2-3.2
				c0.5-0.5,2.2,0.4,2.8-0.1c0.5-0.5-0.4-2.7,0.2-3.2c0.6-0.4,2.4,0.9,3,0.5c0.6-0.4,0.9-1.1,1.5-1.5c0.6-0.4,1.8,0.4,2.4,0
				c0.6-0.3,0-3.1,0.6-3.4c0.6-0.3,2.2,1.3,2.8,1c0.6-0.3,0.5-2.5,1.2-2.7c0.7-0.2,2.1,1.6,2.7,1.4c0.7-0.2,0.8-2.2,1.5-2.4
				c0.7-0.2,1.9,1.9,2.6,1.8c0.7-0.1,0.9-3.2,1.6-3.3c0.7-0.1,1.6,1.4,2.4,1.4c0.7-0.1,1.4,0,2.1-0.1c0.7,0,1.4,1,2.1,1
				c0.7,0,1.4-0.4,2.1-0.4c0.7,0,1.5-1,2.2-0.9c0.7,0.1,1.5-0.1,2.2,0c0.7,0.1,1.1,1.8,1.8,2c0.7,0.1,1.5-0.5,2.2-0.3
				c0.7,0.2,1.8-0.9,2.4-0.7c0.7,0.2,0.9,1.7,1.6,2c0.7,0.2,1.7-0.5,2.4-0.2c0.7,0.3,1.1,1,1.8,1.3c0.6,0.3,1.5,0.2,2.2,0.5
				c0.6,0.3,0.5,2,1.1,2.4c0.6,0.4,2.2-0.7,2.7-0.3c0.6,0.4,0,2.4,0.6,2.8c0.6,0.4,0.6,1.4,1.2,1.8c0.5,0.5,2.4-0.6,2.9-0.1
				c0.5,0.5,0.5,1.5,1,2c0.5,0.5,0.3,1.6,0.8,2.1c0.5,0.5,1.4,0.7,1.8,1.2c0.4,0.6,1.7,0.6,2.1,1.1c0.4,0.6-1.1,2.4-0.7,3
				c0.4,0.6,1.5,0.7,1.9,1.3c0.3,0.6,1.6,0.8,1.9,1.4c0.3,0.6,1.6,0.9,1.9,1.5c0.3,0.6,0.6,1.4,0.8,2c0.2,0.7,0.3,1.5,0.5,2.1
				c0.2,0.7-1.9,2-1.7,2.7c0.2,0.7,2.8,0.8,2.9,1.5c0.1,0.7,0.3,1.5,0.4,2.2c0.1,0.7,0.1,1.5,0.2,2.2c0.1,0.7-1.2,1.5-1.2,2.3
				C129.6,301.4,129.1,302.1,129.1,302.8z"/>
		</g>
		<g>
			<circle class="st4" cx="87.7" cy="302.8" r="33.8"/>
		</g>
	</g>
	<g>
		<g>
			<path class="st0" d="M248.9,188.1c-2.8,0-5-2.2-5-5V85.3c0-41.5-33.8-75.3-75.3-75.3C127,10,93.3,43.8,93.3,85.3v56.1
				c0,2.8-2.2,5-5,5s-5-2.2-5-5V85.3c0-47,38.3-85.3,85.3-85.3s85.3,38.3,85.3,85.3v97.8C253.9,185.8,251.6,188.1,248.9,188.1z"/>
		</g>
		<g>
			<path class="st5" d="M60.9,196.1v12.6c0,0,3.2,1.8,6.4,0.1l0-12.6H60.9z"/>
		</g>
		<g>
			<path class="st5" d="M103.4,196.2v12.5c0,0,3.6,2.1,6.3-0.2l0-12.3"/>
		</g>
		<g>
			<path class="st0" d="M61.1,178.9l-0.5,17.5c0,0,3.8,1.9,7.1,0l0.4-16.9L61.1,178.9z"/>
		</g>
		<g>
			<path class="st0" d="M103.3,180.1l-0.3,16.3c0,0,4.3,2.1,7.1,0l0.3-16.7L103.3,180.1z"/>
		</g>
		<g>
			<path class="st4" d="M46.4,162.5c0-1.4,2.8-5.7,2.8-5.7s1.4-15.5,11.3-22.6s12.7-14.1,14.1-21.2s2.4-32.3,3.8-34.7
				c0.6-1.1,18.6-1,18.8,0.8c0.1,1.4,2.8,31.1,2.8,35.3s4.2,15.5,14.1,22.6s8,19.9,8.5,21.2c0.4,1,2.7,3.6,2.8,4.2
				c0.2,1.4,0,11.3,0,14.1s-12.7,4.2-17,4.2s-32.5,0-41,0s-18.4-2.8-19.8-4.2L46.4,162.5z"/>
		</g>
		<g>
			<path class="st0" d="M96.9,98.9H78.1c-0.6,0-1,0.4-1,1v0.8c0,0.6,0.4,1,1,1h18.8c0.6,0,1-0.4,1-1v-0.8
				C97.9,99.3,97.4,98.9,96.9,98.9z"/>
		</g>
		<g>
			<path class="st0" d="M96.5,93.2H79.1c-0.6,0-1,0.4-1,1v0.8c0,0.6,0.4,1,1,1h17.4c0.6,0,1-0.4,1-1v-0.8
				C97.5,93.7,97,93.2,96.5,93.2z"/>
		</g>
		<g>
			<path class="st0" d="M95.9,87.2H79.4c-0.6,0-1,0.4-1,1V89c0,0.6,0.4,1,1,1h16.5c0.6,0,1-0.4,1-1v-0.8
				C96.9,87.6,96.4,87.2,95.9,87.2z"/>
		</g>
		<g>
			<path class="st0" d="M95.2,81.5H80.3c-0.6,0-1,0.4-1,1v0.8c0,0.6,0.4,1,1,1h14.9c0.6,0,1-0.4,1-1v-0.8
				C96.2,82,95.7,81.5,95.2,81.5z"/>
		</g>
		<g>
			<path class="st0" d="M47.1,162.5c0,0,16.7,2.8,20.8,2.8c4.2,0,40.3,0,43.1,0s13.9-2.8,13.9-2.8l-2.8-4.2c0,0-8.3,2.8-12.5,2.8
				c-4.2,0-40.1,0.9-45.9,0c-6.4-0.9-13.9-4.2-13.9-4.2S47.1,161.1,47.1,162.5z"/>
		</g>
	</g>
	<path class="st5" d="M330.2,201.8c0-0.9-6.7-1.5-13.6-2.2c-0.6-0.9-1.2-1.8-1-2.7c0.5-1.6,0.5-2.8,0.4-4.2c3.4-1,6.1-1.9,6-2.6
		c-0.1-0.6-1.5-1-3.3-1.2c-0.2-0.8-0.7-1.6-0.7-2.2c-0.1-0.9,2.1-2.5,1.7-3.4c-0.4-0.9-1.5-1.4-1.7-2.2c0,0,0,0,0,0
		c1.9-1.2,3.4-2.3,3.2-2.9c-0.4-1.3-8.4,0-12.6,0.1c-0.1-0.4-0.1-0.8-0.2-1.1c-0.1-0.8,0.6-1.8,1-2.7c4.7-3.5,12.8-8.5,12.3-9.7
		c-0.4-0.8-7,1.6-13.4,4.1c0-0.9,0.2-1.7,0.6-2.9c0.5-1.3-0.7-2.4-1.2-3.2c-0.5-0.7-1.4-1.1-3.1-0.9c-1.6,0.2-2.8,0.2-3.3-0.5
		c-0.6-0.6-1.9-1.3-1.9-2.4c0-1.1,0.1-1.6-0.5-2.2c-0.2-0.2-0.4-0.6-0.6-0.9c2.9-3.8,6.1-7.9,5.5-8.6c-1.2-1.3-6.3,0.9-7.7-0.3
		c-1.3-1.2,1.3-9.2-0.2-10.3c-0.9-0.7-4.7,3.2-8,6.1c0,0,0,0,0,0c-1.1,0.2-2.9,1-3.6,0.6c-0.7-0.5-0.4-2.7-1.2-3.2
		c-0.8-0.5-2.1-1.1-3.1-1.1c0,0,0,0,0,0c-0.8-1.4-1.2-3.6-2.5-4.2c-0.8-0.4-2.5,1.3-4.1,3c-0.8-0.5-2.2-0.7-2.7-1.2
		c-0.6-0.8-0.8-1.8-1.5-2.6c-0.8-0.8-1-2.7-1.8-2.9c-1-0.3-2.2-0.4-3.4-0.4c0.7-6.3,1.4-12.7,0.5-13c-1.4-0.3-4.9,9.8-7.3,14.2
		c-0.2,0-0.4,0-0.6,0c-0.7-0.1-1.3,0.4-1.9,1c-1.2-2.8-1.9-10.7-3.4-10.8c-1.8-0.1-4.1-6.1-6-6.1c-1.7,0-2.9,15.8-4.5,18.7
		c-0.8-0.3-1.5-1-2.2-1.7c-1.7-3.6-3.8-10.1-5.1-9.9c-1.8,0.3-3.5,3.2-5.3,3.6c-1.1,0.3-1.4,3.9-1.8,6.7c0,0,0,0-0.1,0
		c-0.8,0.2-2.2-0.6-3,0c-0.8,0.5-1.8,0.7-2.6,1.2c-0.7,0.4-1.2,1.1-1.7,1.8c-2.5-1.4-8.9-11.3-10.3-10.6c-1.3,0.6,2.7,11.3,4,16.6
		c-1.6,0.2-2.4,0.5-3.8,1.3c-0.1,0-0.2,0.1-0.2,0.1c-1.5-0.9-3-1.8-3.7-1.3c-1.5,1-6.2-2.2-7.7-1c-1.4,1.1-3.7,1.7-5.1,3
		c-0.7,0.7,2.1,4.7,4.7,8.5c-0.7,0.5-1,0.8-2.1,0.8c-1.1-0.1-1.6,1.1-2.1,1.8c-1.1,1.3-1.5,2.7-2,4.4c-0.1,0.2-0.1,0.3-0.2,0.5
		c-3.9-1.4-9.2-4-9.9-3c-1,1.5-0.9,4.1-1.8,5.7c-0.8,1.4,4.7,6.5,5.6,8.9c-1,0.2-3.1-0.6-3.4,0.1c-0.1,0.2-0.1,0.4-0.1,0.6
		c-5.9-1.1-16.9-4.6-17.4-3.3c-0.7,1.7,5.7,6.7,5.2,8.5c-0.3,0.8,4.1,2.8,8.7,4.9c0.4,0.6,0.9,1.3,1.2,1.9c0.5,1.1,2.2,2.7,1.9,3.5
		c-0.1,0.3-0.2,0.5-0.4,0.7c-7.8-0.3-18.9-1.2-19,0c-0.2,1.5,11.9,4.5,16,6.5c-0.1,0.4-0.1,0.9,0.1,1.4c0.4,1.7,0.9,3.6,0.9,5.2
		c0,0.7,0.4,1.1,0.8,1.6c-7.5,1.5-18.9,3.1-18.9,4.3c0.1,1.8,11.5,2.6,11.8,4.4c0.3,1.8,5.3,3.6,5.7,5.4c0.4,1.8-17.5,8.2-17,9.9
		c0.5,1.8,30.8-9.9,6.7,4.5c-1.6,0.9,9.7,0.3,10.5,1.9c0.5,1,4.3,0,7.6-0.6c0.3,0.5,0.7,0.9,1,1.4c0.5,0.7,1.4,1.2,1.3,2.2
		c0,0.3,0,0.6,0,0.9c-1.5,1.9-3,3.8-2.5,4.6c1,1.5-5.1,8.7-4,10.1c1.1,1.4,10.9-4.3,12.1-2.9c0.3,0.3,1.2,0,2.4-0.6
		c0.1,0.9,0.1,1.8,0.6,2.5c0.9,1.3,1.9,3.5,3.2,4.6c0.7,0.6,1.5,0.9,2.2,1.3c-1,4.2-7.3,15.8-6,16.6c0.9,0.6,6.9-6.7,11.8-12.3
		c0.1,0.1,0.2,0.2,0.4,0.3c0.7,0.5,2.4-0.3,3.3,0.2c0.5,0.3,0.8,0.5,1.2,0.7c-2.6,7.6-6.8,18.1-5.7,18.6c1.6,0.8,8.8-10.9,10.5-10.3
		c1.7,0.7,2.8,5.8,4.6,6.3c0.7,0.2,2.3-3,4-6.9c0.2,0,0.3,0.1,0.5,0.1c0.8,0.2,1.5-0.3,2.4-0.7c1-0.4,2.2,0.3,3,0.3
		c0.5,0,0.9-0.1,1.4-0.3c0,3.5,0.1,6.5,0.8,6.6c1.8,0.3,3.5,4.7,5.3,4.9c1.8,0.1,4.2-7.5,6-7.5c1.8,0,3.6-0.6,5.4-0.8
		c0.6,0,1.3,0,1.9,0.1c1.3,2.2,2.9,5.5,3.5,5.7c0.6,0.2,0.2-3,0.1-5.4c0.4-0.1,0.7-1.2,0.8-2.8c1.5,0,3.2,0.5,4.5,0.1
		c0.7-0.2,4,1.7,4.8,0.9c2.1,4,4,7.3,4.7,7.1c1.8-0.5,1.6-8.6,3.3-9.3c1.7-0.7,6.9,4.9,8.5,4.1c1.1-0.5-1.8-6.3-3.6-10.6
		c0.1,0,0.2,0,0.2,0c0.8-0.1,1.7-0.3,2.8-0.1c0.9,0.2,1.5-0.2,2.1-0.6c1.5,1.1,2.9,2,3.5,1.6c0.4-0.3,0.1-1.4-0.4-2.9
		c0.7-0.2,1.4-0.3,2.2-0.6c0.8-0.3,1.6-2.5,2.7-2.5c1.2,0,2,0.6,2.7,0.1c0,0,0,0,0.1,0c3.6,3.1,6.8,5.6,7.4,5.1
		c1.3-1.2-4.8-10.5-3.5-11.9c0.3-0.4,0-1.3-0.6-2.4c0.2-0.4,0.5-0.7,0.9-1.2c0.5-0.6-1.1-2-1.1-3.2c0-1.2,2-1.4,2.6-1.9
		c1.3-1,0.7-3.3,1.6-4.7c0.9-1.4,4.3-1.4,4.9-2.9c0.4-1.2,0.8-2.4,1.3-3.5c2.2-0.9,13,1.7,13.6,0.1c0.5-1.3-7.1-5.4-10.9-8.2
		c0.6-0.6,1-1.2,1.3-2.1c0.2-0.8,1.3-1.9,2.3-2.4c0.9-0.4,2.8,0.2,3.3-0.5c0.5-0.7,1.3-1.6,2-2.5c0.7-1,0.2-2.6,0.3-3.4
		c0.1-0.9-0.5-2.6-2.1-3.4c-1.4-0.7-2.4-0.8-2.7-1.6c-0.3-0.7-0.4-1.1-0.2-1.8C319,204.7,330.2,203.3,330.2,201.8z"/>
	<g>
		<path class="st2" d="M309.8,202.2c0,1.7-2.5,4.2-1.8,5.9c0.6,1.8,5.8,3.2,5.6,4.9c-0.3,1.7-2.2,3.9-3.2,5.4c-1,1.5-3.7,2-4.2,3.5
			c-0.5,1.6-2.5,2.1-3.6,3.5c-1,1.3,0.2,4.2-0.5,5.6c-0.8,1.5-2.4,2.5-3.1,4c-0.7,1.5-3.4,1.6-4.4,2.9c-1,1.4-1,3-2.4,3.9
			c-1.3,1-0.6,4.3-1.7,5.4c-1.2,1.2-1.1,2.1-1.6,4.1c-0.5,2-1.7,5.4-3.1,6.4c-1.4,1-4.3,0.1-6.1,0.6c-1.7,0.5-2.7,2.2-4.2,3
			c-1.5,0.8-4.1-0.9-5.9-0.8c-1.7,0.1-3.4,0.5-5,1c-1.6,0.5-3.8-0.7-5.3-0.1c-1.5,0.6-2.8,0.7-4.4,1c-1.6,0.3-2.7,4.7-4.3,4.9
			c-1.6,0.2-3.5,0.1-5.2,0.1c-1.7,0-3.7-2.1-5.4-1.4c-1.8,0.7-3,0.1-4.7-0.2c-1.7-0.3-3.9,1.1-5.4-0.1c-1.5-1.2-2.2-3.8-3.8-4.3
			c-1.6-0.5-3.5-0.1-5.2-0.4c-1.7-0.3-4.2,1-5.7,0.2c-1.5-0.8-2.1-3.6-3.1-5c-1-1.5-2.6-1.9-3.9-2.9c-1.3-1-3-0.6-4.6-1.2
			c-1.6-0.7-3.3-2.5-4.5-3.7c-1.2-1.2-2.7-2.4-3.7-3.8c-1-1.3-2.1-2.5-3.1-3.9c-1-1.4-1.1-3.7-1.8-5.2c-0.6-1.5,0.2-3.6-0.6-5.1
			c-0.8-1.5-3.3-2-4-3.5c-0.7-1.4-1.2-3.3-1.8-4.9c-0.5-1.6,1.2-3.9,0.7-5.4c-0.6-1.5-1.1-2.9-1.3-4.6c-0.3-1.6-1.4-3.2-1.2-4.9
			c0.1-1.6-1.3-3.2-1.3-4.9c0-1.7,2.2-3.3,2.4-4.9c0.2-1.6,0.5-3.2,0.8-4.8c0.3-1.7,2.5-3.5,2.4-5.1c-0.1-1.7-2.4-3.3-1.9-4.9
			c0.5-1.6,0.3-3.4,0.5-5.1c0.2-1.8,1.4-3.2,2.1-4.7c0.8-1.5,2.8-2,3.8-3.3c1.1-1.4-0.2-4.5,0.8-5.9c1-1.4,1.1-3.5,2.2-4.9
			c1.1-1.3,3.8-1.3,5-2.5c1.2-1.2,3.8-0.4,5.3-1.4c1.4-0.9,2.3-2.8,3.6-3.7c1.3-1,2-3,3.2-4.3c1.2-1.3,2.3-2.8,3.8-3.6
			c1.5-0.8,3.9,1.5,5.6,1.1c1.7-0.4,2.1-5.6,3.7-6.1c1.6-0.5,3.4-0.3,5-0.9c1.6-0.7,4.2,2.5,5.9,2.3c1.7-0.3,2.6-0.8,4.4-0.4
			c1.7,0.4,3.9-2.6,5.5-2.6c1.7,0,3.2,0.4,4.9,0.2c1.7-0.2,3.9-0.6,5.5-0.4c1.7,0.3,3.2,1.5,4.9,1.9c1.7,0.4,3.1,1.8,4.7,2.3
			c1.6,0.5,2.3,2.4,3.8,3.4c1.4,1,3.2,1.6,4.7,2.4c1.5,0.8,3.1,2.3,4.8,2.7c1.7,0.5,4-1,5.4-0.1c1.4,1,3.1,1.6,4.5,2.6
			c1.4,1,3.1,1.9,4.3,3.1c1.2,1.2,1.7,3.6,2,5.6c0.3,1.9-0.8,4.5,0.2,5.8c1,1.3,3.8,1,5.4,1.9c1.7,1,2.2,3.1,3,4.6
			c0.8,1.5,4,1.9,4.7,3.5c0.8,1.6,0.1,4,0.6,5.6c0.5,1.6-2.4,3.4-2.5,5.2c-0.1,1.8,2.5,3.7,2.8,5.3c0.3,1.6-2.5,3.2-2.6,4.9
			C306.4,198.7,309.8,200.6,309.8,202.2z"/>
	</g>
	<g>
		<path class="st3" d="M304.4,202.3c0,4,2.4,8.3,1.7,12.1c-0.8,3.9-4.2,7.2-5.7,10.8c-1.5,3.6-4.7,6.2-6.9,9.4
			c-2.2,3.3-3.9,6.6-6.7,9.3s-6.5,3.9-9.8,6.1c-3.2,2.2-4.5,8-8.2,9.5c-3.6,1.5-8.1,0.9-12,1.6c-3.8,0.7-7.7-1.1-11.7-1.1
			c-4,0-7.7,0.4-11.4-0.3c-3.9-0.8-7.5-1.7-11.1-3.2c-3.6-1.5-8.6-0.7-11.9-2.9c-3.3-2.2-4.4-7.1-7.2-9.9c-2.8-2.8-6.2-4.9-8.4-8.2
			c-2.2-3.2-1.6-7.8-3.1-11.4c-1.5-3.6-4.3-6.5-5.1-10.4c-0.7-3.8-0.6-7.6-0.6-11.6c0-4,1.3-7.5,2-11.3c0.8-3.9,1.4-7.4,2.9-11
			c1.5-3.6,2.6-7.2,4.8-10.5c2.2-3.3,5.3-5.5,8-8.2c2.8-2.8,5.7-4.8,9-7c3.2-2.2,5.7-5.5,9.3-7c3.6-1.5,6.9-4.3,10.8-5
			c3.8-0.7,7.9-0.4,11.9-0.4c4,0,8,0.3,11.8,1.1c3.9,0.8,7.5,2.6,11.1,4.1c3.6,1.5,8.2,1.7,11.4,3.9c3.3,2.2,5.8,5.6,8.6,8.4
			c2.8,2.8,6.2,5.3,8.4,8.6c2.2,3.2,2.2,7.9,3.7,11.5c1.5,3.6,3.8,7,4.6,10.9C305.4,194.2,304.4,198.3,304.4,202.3z"/>
	</g>
	<g>
		<path class="st5" d="M290.4,231.8c-16.1,24.7-49.7,31.1-74.3,15.1s-32.6-49.6-16.5-74.3s50.8-32.2,75.5-16.2
			C299.7,172.5,306.5,207.1,290.4,231.8z"/>
	</g>
	<g>
		<g>
			<path class="st2" d="M205.5,187.8c2.3-2.3,4.6-5.9,8.7-4.1s7.3,2.7,11.9,1.8c4.6-0.9,5.9,0.9,7.7,2.3c1.8,1.4,5.5-1.4,9.1-2.7
				c3.6-1.4,10.9,2.3,10.5,5c-0.5,2.7-7.3,5.5-9.6,2.7s-7.7-2.3-9.6-1.4c-1.8,0.9-2.7,5.5-0.9,6.4c1.8,0.9,1.4,5.5-0.5,3.6
				c-1.8-1.8-3.2,0-6.4-0.9c-3.2-0.9-2.7-4.1-2.7-7.3c0-3.2-6.8-2.7-6.8-0.9c0,1.8-0.5,5-3.2,4.6s-5.5,1.8-7.7,2.3
				c-2.3,0.5-8.7-3.2-5.5-5C203.7,192.4,205.5,187.8,205.5,187.8z"/>
		</g>
		<g>
			<path class="st2" d="M252.5,229.3c2.2-1.5,3.6-1.4,7.3,0s5.5,3.6,8.2,5s7.7,2.3,7.7,3.6s-3.6,6.8-5.5,4.1s-4.6-5.9-8.2-7.7
				S249.3,231.6,252.5,229.3z"/>
		</g>
		<g>
			<path class="st2" d="M272.1,173.7c1.3-1.9,2.3-0.9,6.4-1.8c4.1-0.9,5.5,1.8,6.4,3.6c0.9,1.8-4.6,1.4-5,3.2c-0.5,1.8-2.7,2.3-5,0
				S271.2,175,272.1,173.7z"/>
		</g>
		<g>
			<path class="st2" d="M269.4,159.1c-3.8,0,0.5,5.9,3.2,7.7c2.7,1.8,4.1,0,3.2-1.8C274.8,163.2,273.5,159.1,269.4,159.1z"/>
		</g>
		<g>
			<path class="st2" d="M242.9,152.7c-4.6,0-16.4,6.4-13.7,7.7s5-0.9,7.7-0.9s3.2,0.9,5,2.3c1.8,1.4,5.9-0.5,5.9-2.3
				c0-1.8-6.8-2.3-5.5-3.2c1.4-0.9,9.1-1.4,10.5-1.4s1.8-3.2-0.9-3.2S247.9,152.7,242.9,152.7z"/>
		</g>
		<g>
			<path class="st2" d="M199.2,219.7c0.6-1.7,2.3-1.4,5.5,1.8c3.2,3.2,2.7,6.8,5.5,8.2s6.8,5.9,4.1,5c-2.7-0.9-7.7-2.7-9.1-5.9
				S198.7,221.1,199.2,219.7z"/>
		</g>
		<g>
			<path class="st2" d="M219.7,214.2c0.9,2.3,1.4,9.1,3.2,10.5c1.8,1.4,5,5,8.7,4.1c3.6-0.9,7.3,4.6,3.6,4.1
				c-3.6-0.5-9.1-1.8-11.9-3.2c-2.7-1.4-2.7-4.6-6.4-7.7c-3.6-3.2-6.6-12.8-4.1-10c4.1,4.6,3.6-2.7,6.4-4.1
				C222,206.5,219.7,214.2,219.7,214.2z"/>
		</g>
		<g>
			<path class="st2" d="M277.1,194.6c3.7,0.7,7.3,0.5,8.2,3.2c0.9,2.7,5.5,8.7,6.4,5.5c0.9-3.2,1.4-7.7,0-10.9
				c-1.4-3.2-3.1-7.4,0.5-7.3c3.7,0.2,2.7,2.7,3.2,7.7c0.5,5-1.8,14.1-4.6,15s-5.9-2.3-8.2-5c-2.3-2.7-8.2-1.8-7.7-4.1
				C275.3,196.5,274.8,194.2,277.1,194.6z"/>
		</g>
		<g>
			<path class="st2" d="M205.1,170.5c-1.7,2.1,6.4,0.5,7.3-1.4c0.9-1.8,2.3-5.6,0-5.5C208.9,163.8,206.9,168.2,205.1,170.5z"/>
		</g>
		<g>
			<path class="st2" d="M232.4,248.9c-2.7-1.4,4.2,1.2,8.6-1.7c2.5-1.6-1.4-2.4,0.5-4.2c1.8-1.8,3.6-1.4,5.5,1.8
				c1.8,3.2,1.8,0,5.9,0.5c4.1,0.5,10.9,1.4,6.8,2.7c-4.1,1.4-5,2.3-9.6,2.7C245.7,251.2,236.1,250.7,232.4,248.9z"/>
		</g>
		<g>
			<path class="st2" d="M244.3,211.5c3-1.9,4.1-2.7,7.7-0.5c3.6,2.3,9.6,2.3,8.2,5.5c-1.4,3.2-5,7.7-5.5,5.5
				c-0.5-2.3,0.5-6.8-3.6-6.8C247,215.2,240.6,213.8,244.3,211.5z"/>
		</g>
		<g>
			<path class="st2" d="M253.9,176c2.3-0.9,5.5-0.5,6.4,1.8c0.9,2.3,3.2,1.4-2.7,3.2c-5.9,1.8-14.1-2.3-11.9-2.7
				C247.9,177.8,253.9,176,253.9,176z"/>
		</g>
	</g>
	<g>
		<path class="st5" d="M103.3,318.9l-3.9-5.5c-0.1-0.1-0.2-0.1-0.3-0.2c-0.1,0-0.2,0-0.3,0.1c-0.1,0.1-5.4,5.2-11.9,2.7
			c-2.9-1.1-5.4-3.8-6.4-7.1h14.2c0.2,0,0.4-0.2,0.4-0.4v-4.3c0-0.1,0-0.2-0.1-0.3c-0.1-0.1-0.2-0.1-0.3-0.1l-15,0.4
			c-0.1-1,0-2,0-3.1l15-0.2c0.2,0,0.4-0.2,0.4-0.4v-4c0-0.1,0-0.2-0.1-0.3c-0.1-0.1-0.2-0.1-0.3-0.1c0,0,0,0,0,0l-14.2,0.1
			c0.1-0.5,0.3-0.9,0.4-1.4c1.1-3.4,4.1-6.2,7.6-7c3.4-0.9,6.9,0.1,9.8,2.8c0.1,0.1,0.2,0.1,0.3,0.1c0.1,0,0.2-0.1,0.3-0.2l3.7-5.2
			c0.1-0.2,0.1-0.4-0.1-0.5c-0.2-0.2-4.6-4.2-12.3-4.2c0,0-0.1,0-0.1,0c-11.4,0-16.7,8.3-17.8,15.6l-4.8,0c-0.2,0-0.4,0.2-0.4,0.4
			v4.1c0,0.1,0,0.2,0.1,0.3c0.1,0.1,0.2,0.1,0.3,0.1l4.2-0.1c-0.1,1.1-0.2,2.2-0.2,3.2l-4,0.1c-0.2,0-0.4,0.2-0.4,0.4v3.7
			c0,0.2,0.2,0.4,0.4,0.4H72c0.9,5.1,3.5,8.9,8.2,11.7c3.5,2.2,6.9,3,10.1,3c5,0,9.5-2.1,12.9-4.3c0.1-0.1,0.1-0.1,0.2-0.2
			C103.4,319.1,103.3,319,103.3,318.9z"/>
	</g>
</g>
</svg>
