<?xml version="1.0" encoding="utf-8"?>
<!-- Generator: Adobe Illustrator 19.1.0, SVG Export Plug-In . SVG Version: 6.00 Build 0)  -->
<svg version="1.1" id="Lager_1" xmlns="http://www.w3.org/2000/svg" xmlns:xlink="http://www.w3.org/1999/xlink" x="0px" y="0px"
	 viewBox="0 0 1762.2 546.4" style="enable-background:new 0 0 1762.2 546.4;" xml:space="preserve">
<style type="text/css">
	.st0{fill:#FFA74C;}
	.st1{fill:#F26641;}
	.st2{fill:#FFDE40;}
</style>
<g>
	<path class="st0" d="M371.3,18.2c69.4,31.4,118.1,100.4,120.3,181c0.1,1.9,0.1,3.8,0.1,5.7c0,73.9-39.1,138.6-97.7,174.6
		c-31.2,19.2-67.9,30.3-107.2,30.3l-6.8-0.2c-22.7-0.7-44.5-5.1-64.7-12.7c-46.5-21.8-78.7-69-78.7-123.8c0-22.5,5.5-43.7,15.1-62.4
		c-1.2,2-2.5,3.9-3.6,5.9c-19.7,34-28.4,71.4-27.4,108c0.8,29.5,8,58.6,21.1,85.1c17.3,35.2,44.8,65.8,81.3,86.8
		c1.7,1,3.3,1.8,5,2.7c70.6,38.2,154.3,30.7,216.2-13.2c0.3-0.3,0.7-0.6,1-0.8c23.7-19.3,44.1-42.4,60.3-68.5c0,0,0,0,0,0
		c1.5-2.3,2.8-4.7,4.2-7.1h0c23.3-40.2,36.6-86.8,36.6-136.6C546.4,156.9,473.7,57.7,371.3,18.2z"/>
	<path class="st1" d="M371.3,18.2c-28.4-11-59.2-17.3-91.3-18c-2.3-0.1-4.5-0.2-6.8-0.2C122.3,0,0,122.3,0,273.2
		C0,287.8,1.2,302,3.4,316C-4.2,240.1,31.1,163.3,99.9,121c1.6-1,3.2-2,4.9-3c64-36.9,139.6-35.4,200.1-2.7
		c32.2,17.4,60.2,43.7,79.8,77.7c1.2,2.1,2.3,4.2,3.4,6.3c11.7,18.1,19.2,39.1,21.2,61.6c0.4,4,0.6,8.1,0.6,12.2
		c0,73.2-57.5,132.9-129.8,136.4c2.3,0.1,4.5,0.2,6.8,0.2c39.3,0,76-11.1,107.2-30.3c58.6-36.1,97.7-100.8,97.7-174.6
		c0-1.9-0.1-3.8-0.1-5.7C489.5,118.6,440.7,49.7,371.3,18.2z"/>
	<path class="st2" d="M151.7,210.8c10.1-19.7,24.9-36.6,42.8-49.2c22.2-15.7,49.4-25,78.7-25c48.2,0,90.6,25,114.9,62.7
		c-1.1-2.1-2.2-4.2-3.4-6.3c-19.7-34-47.6-60.3-79.8-77.7c-60.5-32.7-136.1-34.2-200.1,2.7c-1.7,1-3.2,2-4.9,3
		C31.1,163.3-4.2,240.1,3.4,316c4.8,30.7,14.8,59.7,28.9,86.1c1.6,2.6,3.2,5.2,4.9,7.7h-0.6c47.2,81.6,135.5,136.6,236.6,136.6
		c64.7,0,124.2-22.6,171-60.2c-61.9,43.9-145.5,51.4-216.2,13.2c-1.7-0.9-3.3-1.8-5-2.7c-36.5-21.1-64-51.7-81.3-86.8
		c-13-26.5-20.2-55.5-21.1-85.1c-1-36.6,7.7-73.9,27.4-108C149.3,214.7,150.5,212.8,151.7,210.8z"/>
	<g>
		<polygon points="642.1,137.9 749.7,137.9 749.7,422.5 763.7,422.5 763.7,137.9 871.2,137.9 871.2,124 642.1,124 		"/>
		<path d="M1098.4,264.5c12.7-15.3,19.1-33.4,19.1-53.8c0-26.6-9-47.9-26.8-63.4c-17.7-15.5-41.9-23.3-71.7-23.3h-95.7v298.5h14V296
			h100.2l78.5,126.4h13.9v-4.8l-78-125C1070.5,288.7,1086.1,279.3,1098.4,264.5z M937.3,137.9h80.9c26.4,0,47.5,6.6,62.6,19.5
			c15.1,12.9,22.7,30.8,22.7,53.2c0,20.5-6.9,37.6-20.6,51.1c-13.6,13.4-31.8,20.3-54,20.3h-91.7V137.9z"/>
		<rect x="1194" y="124" width="14" height="298.5"/>
		<polygon points="1489.5,396.9 1301,124 1287.6,124 1287.6,422.5 1301.7,422.5 1301.7,149 1490.2,422.5 1503.4,422.5 1503.4,124 
			1489.5,124 		"/>
		<polygon points="1762.2,137.9 1762.2,124 1579.4,124 1579.4,422.5 1762.2,422.5 1762.2,408.5 1593.4,408.5 1593.4,275.9 
			1741.5,275.9 1741.5,262 1593.4,262 1593.4,137.9 		"/>
	</g>
</g>
</svg>
